<svg width="52" height="52" viewBox="0 0 52 52" fill="none" xmlns="http://www.w3.org/2000/svg">
<circle cx="26" cy="26" r="26" fill="#D9D9D9"/>
<path d="M18 32C18 30.9391 18.4214 29.9217 19.1716 29.1716C19.9217 28.4214 20.9391 28 22 28H30C31.0609 28 32.0783 28.4214 32.8284 29.1716C33.5786 29.9217 34 30.9391 34 32C34 32.5304 33.7893 33.0391 33.4142 33.4142C33.0391 33.7893 32.5304 34 32 34H20C19.4696 34 18.9609 33.7893 18.5858 33.4142C18.2107 33.0391 18 32.5304 18 32Z" stroke="black" stroke-width="2" stroke-linejoin="round"/>
<path d="M26 24C27.6569 24 29 22.6569 29 21C29 19.3431 27.6569 18 26 18C24.3431 18 23 19.3431 23 21C23 22.6569 24.3431 24 26 24Z" stroke="black" stroke-width="2"/>
</svg>
