<svg width="41" height="67" viewBox="0 0 41 67" fill="none" xmlns="http://www.w3.org/2000/svg">
<circle cx="20.5" cy="49.5" r="17.5" fill="#A8E386"/>
<path d="M41 2.5625C41 11.2189 34.866 18.442 26.7141 20.1316C26.0814 15.4791 23.9914 11.291 20.9084 8.04785C24.1195 3.20312 29.6209 0 35.875 0H38.4375C39.8549 0 41 1.14512 41 2.5625ZM0 7.6875C0 6.27012 1.14512 5.125 2.5625 5.125H5.125C15.0307 5.125 23.0625 13.1568 23.0625 23.0625V38.4375C23.0625 39.8549 21.9174 41 20.5 41C19.0826 41 17.9375 39.8549 17.9375 38.4375V25.625C8.03184 25.625 0 17.5932 0 7.6875Z" fill="#A8E386"/>
</svg>
