<svg width="28" height="25" viewBox="0 0 28 25" fill="none" xmlns="http://www.w3.org/2000/svg">
<path d="M27.3467 11.7019C26.4661 10.1745 21.6225 2.51014 13.394 2.75782C5.7847 2.95046 1.38148 9.63786 0.18435 11.7019C0.0635803 11.9111 0 12.1483 0 12.3899C0 12.6314 0.0635803 12.8687 0.18435 13.0779C1.05123 14.5777 5.68838 22.0219 13.7931 22.0219H14.1371C21.7464 21.8293 26.1634 15.1419 27.3467 13.0779C27.4675 12.8687 27.5311 12.6314 27.5311 12.3899C27.5311 12.1483 27.4675 11.9111 27.3467 11.7019ZM14.0683 19.2699C8.13768 19.4075 4.27109 14.33 3.06021 12.3899C4.43621 10.1745 8.02759 5.64744 13.5316 5.50984C19.4347 5.35848 23.315 10.4497 24.5397 12.3899C23.1224 14.6052 19.5723 19.1323 14.0683 19.2699Z" fill="#B2ACAC"/>
<path d="M13.7601 7.56787C12.8076 7.56787 11.8765 7.85033 11.0845 8.37952C10.2925 8.90871 9.67521 9.66087 9.31069 10.5409C8.94618 11.4209 8.85081 12.3892 9.03663 13.3235C9.22246 14.2577 9.68114 15.1158 10.3547 15.7893C11.0282 16.4629 11.8863 16.9216 12.8206 17.1074C13.7548 17.2932 14.7231 17.1978 15.6031 16.8333C16.4831 16.4688 17.2353 15.8515 17.7645 15.0595C18.2937 14.2675 18.5761 13.3364 18.5761 12.3839C18.5761 11.1066 18.0687 9.88163 17.1656 8.97845C16.2624 8.07527 15.0374 7.56787 13.7601 7.56787ZM13.7601 14.4479C13.3519 14.4479 12.9528 14.3269 12.6134 14.1001C12.274 13.8733 12.0094 13.5509 11.8532 13.1738C11.697 12.7966 11.6561 12.3816 11.7358 11.9812C11.8154 11.5808 12.012 11.2131 12.3006 10.9244C12.5893 10.6358 12.9571 10.4392 13.3575 10.3595C13.7578 10.2799 14.1728 10.3208 14.55 10.477C14.9271 10.6332 15.2495 10.8978 15.4763 11.2372C15.7031 11.5766 15.8241 11.9757 15.8241 12.3839C15.8241 12.9313 15.6067 13.4563 15.2196 13.8434C14.8325 14.2305 14.3075 14.4479 13.7601 14.4479Z" fill="#B2ACAC"/>
<path fill-rule="evenodd" clip-rule="evenodd" d="M26.1441 2.13398L3.50995 24.7681L1.37598 22.6342L24.01 0L26.1441 2.13398Z" fill="#B2ACAC"/>
</svg>
