<svg width="26" height="23" viewBox="0 0 26 23" fill="none" xmlns="http://www.w3.org/2000/svg">
<path d="M25.0951 10.7384C24.287 9.33679 19.8422 2.30349 12.2912 2.53078C5.30841 2.70756 1.26773 8.84433 0.169171 10.7384C0.0583453 10.9304 0 11.1481 0 11.3698C0 11.5914 0.0583453 11.8092 0.169171 12.0011C0.964679 13.3775 5.22002 20.2087 12.6574 20.2087H12.9731C19.9559 20.032 24.0092 13.8952 25.0951 12.0011C25.2059 11.8092 25.2643 11.5914 25.2643 11.3698C25.2643 11.1481 25.2059 10.9304 25.0951 10.7384ZM12.9099 17.6833C7.46764 17.8096 3.91942 13.1502 2.80824 11.3698C4.07095 9.33679 7.36663 5.18247 12.4175 5.0562C17.8345 4.9173 21.3953 9.58933 22.5192 11.3698C21.2186 13.4027 17.9608 17.557 12.9099 17.6833Z" fill="#B2ACAC"/>
<path d="M12.627 6.94482C11.7529 6.94482 10.8985 7.20402 10.1717 7.68964C9.44489 8.17526 8.87844 8.86549 8.54394 9.67305C8.20943 10.4806 8.12191 11.3692 8.29244 12.2265C8.46297 13.0838 8.88388 13.8713 9.50196 14.4894C10.12 15.1074 10.9075 15.5284 11.7648 15.6989C12.6221 15.8694 13.5107 15.7819 14.3183 15.4474C15.1258 15.1129 15.8161 14.5464 16.3017 13.8197C16.7873 13.0929 17.0465 12.2384 17.0465 11.3643C17.0465 10.1922 16.5809 9.06808 15.7521 8.23926C14.9232 7.41045 13.7991 6.94482 12.627 6.94482ZM12.627 13.2584C12.2524 13.2584 11.8862 13.1473 11.5747 12.9392C11.2632 12.7311 11.0205 12.4352 10.8771 12.0891C10.7338 11.743 10.6963 11.3622 10.7693 10.9948C10.8424 10.6274 11.0228 10.2899 11.2877 10.025C11.5526 9.76012 11.8901 9.57972 12.2575 9.50664C12.6249 9.43356 13.0057 9.47107 13.3518 9.61442C13.6979 9.75778 13.9937 10.0005 14.2019 10.312C14.41 10.6235 14.5211 10.9897 14.5211 11.3643C14.5211 11.8667 14.3215 12.3484 13.9663 12.7036C13.6111 13.0588 13.1293 13.2584 12.627 13.2584Z" fill="#B2ACAC"/>
</svg>
