<svg width="53" height="50" viewBox="0 0 53 50" fill="none" xmlns="http://www.w3.org/2000/svg">
<path fill-rule="evenodd" clip-rule="evenodd" d="M20.4095 49.2H32.0705C40.26 49.2 44.3561 49.2 47.2976 47.191C48.5672 46.3249 49.6603 45.2066 50.5146 43.9001C52.48 40.8934 52.48 36.7032 52.48 28.3283C52.48 19.9534 52.48 15.7632 50.5146 12.7566C49.6603 11.45 48.5672 10.3317 47.2976 9.46564C45.4083 8.17277 43.0415 7.71084 39.4177 7.54684C37.6885 7.54684 36.2007 6.20751 35.8622 4.47185C35.6035 3.20049 34.9314 2.06115 33.9594 1.24639C32.9874 0.431626 31.7752 -0.0085958 30.5276 0.000127184H21.9524C19.3599 0.000127184 17.1268 1.87246 16.6178 4.47185C16.2793 6.20751 14.7915 7.54684 13.0623 7.54684C9.44115 7.71084 7.0743 8.17551 5.1824 9.46564C3.91379 10.332 2.82152 11.4503 1.968 12.7566C0 15.7632 0 19.9507 0 28.3283C0 36.706 1.56403e-07 40.8907 1.96538 43.9001C2.81555 45.2011 3.90714 46.3191 5.1824 47.191C8.1239 49.2 12.22 49.2 20.4095 49.2ZM26.24 17.1463C20.2022 17.1463 15.3058 22.151 15.3058 28.3256C15.3058 34.5002 20.2048 39.5131 26.24 39.5131C32.2752 39.5131 37.1742 34.5056 37.1742 28.3311C37.1742 22.1565 32.2752 17.1463 26.24 17.1463ZM26.24 21.618C22.6189 21.618 19.68 24.6219 19.68 28.3283C19.68 32.032 22.6189 35.0359 26.24 35.0359C29.8611 35.0359 32.8 32.032 32.8 28.3283C32.8 24.6247 29.8611 21.618 26.24 21.618ZM38.6305 19.3821C38.6305 18.1467 39.6093 17.1463 40.8189 17.1463H43.7316C44.9386 17.1463 45.92 18.1467 45.92 19.3821C45.9145 19.9805 45.6811 20.552 45.2713 20.9713C44.8615 21.3905 44.3086 21.6231 43.7342 21.618H40.8189C40.5343 21.6209 40.2519 21.5653 39.9879 21.4545C39.7239 21.3437 39.4834 21.1798 39.2802 20.9722C39.077 20.7646 38.915 20.5173 38.8035 20.2445C38.6921 19.9717 38.6333 19.6786 38.6305 19.3821Z" fill="white"/>
</svg>
