<svg width="20" height="14" viewBox="0 0 20 14" fill="none" xmlns="http://www.w3.org/2000/svg">
<path d="M19.8661 6.50168C19.2263 5.39212 15.7077 -0.175664 9.73011 0.00426438C4.2023 0.144209 1.00358 5.00228 0.133921 6.50168C0.046188 6.65364 0 6.82602 0 7.00148C0 7.17695 0.046188 7.34933 0.133921 7.50129C0.763671 8.59085 4.13233 13.9987 10.02 13.9987H10.2699C15.7977 13.8588 19.0064 9.00069 19.8661 7.50129C19.9538 7.34933 20 7.17695 20 7.00148C20 6.82602 19.9538 6.65364 19.8661 6.50168ZM10.2199 11.9995C5.91163 12.0995 3.10274 8.41092 2.22309 7.00148C3.22269 5.39212 5.83166 2.10343 9.83007 2.00347C14.1184 1.89351 16.9372 5.59204 17.8269 7.00148C16.7973 8.61084 14.2183 11.8995 10.2199 11.9995Z" fill="black"/>
<path d="M9.99617 3.49854C9.30421 3.49854 8.62779 3.70372 8.05245 4.08816C7.4771 4.47259 7.02868 5.019 6.76388 5.65828C6.49907 6.29757 6.42979 7.00103 6.56478 7.67969C6.69978 8.35835 7.03299 8.98175 7.52228 9.47103C8.01157 9.96032 8.63496 10.2935 9.31362 10.4285C9.99229 10.5635 10.6957 10.4942 11.335 10.2294C11.9743 9.96464 12.5207 9.51621 12.9052 8.94087C13.2896 8.36552 13.4948 7.6891 13.4948 6.99714C13.4948 6.06926 13.1262 5.17937 12.4701 4.52325C11.8139 3.86714 10.9241 3.49854 9.99617 3.49854ZM9.99617 8.49655C9.69962 8.49655 9.40972 8.40861 9.16315 8.24385C8.91657 8.0791 8.72439 7.84492 8.6109 7.57094C8.49741 7.29696 8.46772 6.99548 8.52558 6.70462C8.58343 6.41377 8.72624 6.1466 8.93593 5.93691C9.14563 5.72721 9.41279 5.58441 9.70365 5.52655C9.99451 5.4687 10.296 5.49839 10.57 5.61188C10.8439 5.72536 11.0781 5.91754 11.2429 6.16412C11.4076 6.4107 11.4956 6.70059 11.4956 6.99714C11.4956 7.39481 11.3376 7.77619 11.0564 8.05738C10.7752 8.33858 10.3938 8.49655 9.99617 8.49655Z" fill="black"/>
</svg>
