<svg width="20" height="18" viewBox="0 0 20 18" fill="none" xmlns="http://www.w3.org/2000/svg">
<path d="M19.8661 8.50071C19.2263 7.39115 15.7077 1.82336 9.73011 2.00329C4.2023 2.14323 1.00358 7.0013 0.133921 8.50071C0.046188 8.65266 0 8.82504 0 9.00051C0 9.17597 0.046188 9.34835 0.133921 9.50031C0.763671 10.5899 4.13233 15.9977 10.02 15.9977H10.2699C15.7977 15.8578 19.0064 10.9997 19.8661 9.50031C19.9538 9.34835 20 9.17597 20 9.00051C20 8.82504 19.9538 8.65266 19.8661 8.50071ZM10.2199 13.9985C5.91163 14.0985 3.10274 10.4099 2.22309 9.00051C3.22269 7.39115 5.83166 4.10245 9.83007 4.00249C14.1184 3.89254 16.9372 7.59107 17.8269 9.00051C16.7973 10.6099 14.2183 13.8986 10.2199 13.9985Z" fill="#B2ACAC"/>
<path d="M9.99605 5.49756C9.30409 5.49756 8.62767 5.70275 8.05232 6.08718C7.47698 6.47161 7.02856 7.01802 6.76375 7.65731C6.49895 8.2966 6.42967 9.00005 6.56466 9.67871C6.69966 10.3574 7.03287 10.9808 7.52216 11.4701C8.01145 11.9593 8.63484 12.2926 9.3135 12.4276C9.99217 12.5625 10.6956 12.4933 11.3349 12.2285C11.9742 11.9637 12.5206 11.5152 12.905 10.9399C13.2895 10.3645 13.4947 9.68813 13.4947 8.99617C13.4947 8.06828 13.1261 7.17839 12.4699 6.52228C11.8138 5.86616 10.9239 5.49756 9.99605 5.49756ZM9.99605 10.4956C9.69949 10.4956 9.4096 10.4076 9.16302 10.2429C8.91645 10.0781 8.72427 9.84395 8.61078 9.56996C8.49729 9.29598 8.4676 8.9945 8.52545 8.70365C8.58331 8.41279 8.72611 8.14562 8.93581 7.93593C9.1455 7.72623 9.41267 7.58343 9.70353 7.52557C9.99438 7.46772 10.2959 7.49741 10.5698 7.6109C10.8438 7.72439 11.078 7.91657 11.2428 8.16314C11.4075 8.40972 11.4955 8.69961 11.4955 8.99617C11.4955 9.39383 11.3375 9.77521 11.0563 10.0564C10.7751 10.3376 10.3937 10.4956 9.99605 10.4956Z" fill="#B2ACAC"/>
<path fill-rule="evenodd" clip-rule="evenodd" d="M18.9924 1.55023L2.5498 17.9928L0.999573 16.4427L17.4421 0L18.9924 1.55023Z" fill="#B2ACAC"/>
</svg>
