<svg width="60" height="60" viewBox="0 0 60 60" fill="none" xmlns="http://www.w3.org/2000/svg">
<circle cx="30" cy="30" r="30" fill="#D9D9D9"/>
<path fill-rule="evenodd" clip-rule="evenodd" d="M26 25C26 23.9391 26.4214 22.9217 27.1716 22.1716C27.9217 21.4214 28.9391 21 30 21C31.0609 21 32.0783 21.4214 32.8284 22.1716C33.5786 22.9217 34 23.9391 34 25C34 26.0609 33.5786 27.0783 32.8284 27.8284C32.0783 28.5786 31.0609 29 30 29C28.9391 29 27.9217 28.5786 27.1716 27.8284C26.4214 27.0783 26 26.0609 26 25ZM26 31C24.6739 31 23.4021 31.5268 22.4645 32.4645C21.5268 33.4021 21 34.6739 21 36C21 36.7956 21.3161 37.5587 21.8787 38.1213C22.4413 38.6839 23.2044 39 24 39H36C36.7956 39 37.5587 38.6839 38.1213 38.1213C38.6839 37.5587 39 36.7956 39 36C39 34.6739 38.4732 33.4021 37.5355 32.4645C36.5979 31.5268 35.3261 31 34 31H26Z" fill="white"/>
</svg>
