<svg width="32" height="32" viewBox="0 0 32 32" fill="none" xmlns="http://www.w3.org/2000/svg">
<path d="M24.0003 2.14383C26.4136 3.5372 28.4211 5.53667 29.8241 7.94431C31.2271 10.3519 31.977 13.0843 31.9995 15.8708C32.022 18.6573 31.3163 21.4014 29.9524 23.8313C28.5885 26.2613 26.6135 28.293 24.2231 29.7251C21.8327 31.1573 19.1096 31.9403 16.3236 31.9967C13.5375 32.0531 10.785 31.3809 8.33859 30.0466C5.89217 28.7123 3.83664 26.7623 2.3755 24.3895C0.914351 22.0166 0.0982561 19.3034 0.00800028 16.5182L0 15.9998L0.00800028 15.4814C0.0976063 12.7182 0.901687 10.0254 2.34185 7.66542C3.78202 5.30547 5.80912 3.35895 8.22553 2.01564C10.6419 0.672328 13.3652 -0.0219373 16.1298 0.000528393C18.8944 0.022994 21.606 0.761424 24.0003 2.14383ZM16.0002 6.39983C15.6083 6.39988 15.23 6.54376 14.9372 6.80417C14.6443 7.06459 14.4572 7.42342 14.4114 7.81263L14.4002 7.99983V15.9998L14.4146 16.2094C14.4511 16.487 14.5597 16.7502 14.7298 16.9726L14.869 17.1326L19.669 21.9326L19.8194 22.0638C20.1 22.2815 20.4451 22.3997 20.8003 22.3997C21.1554 22.3997 21.5005 22.2815 21.7811 22.0638L21.9315 21.931L22.0643 21.7806C22.282 21.5 22.4001 21.155 22.4001 20.7998C22.4001 20.4447 22.282 20.0996 22.0643 19.819L21.9315 19.6686L17.6002 15.3358V7.99983L17.589 7.81263C17.5432 7.42342 17.3561 7.06459 17.0632 6.80417C16.7703 6.54376 16.3921 6.39988 16.0002 6.39983Z" fill="black"/>
</svg>
