<svg width="32" height="32" viewBox="0 0 32 32" fill="none" xmlns="http://www.w3.org/2000/svg">
<path d="M20.9568 17.0144L17.6 15.0768V8C17.6 7.57565 17.4314 7.16869 17.1314 6.86863C16.8313 6.56857 16.4244 6.4 16 6.4C15.5757 6.4 15.1687 6.56857 14.8686 6.86863C14.5686 7.16869 14.4 7.57565 14.4 8V16C14.4 16.2808 14.4739 16.5567 14.6144 16.8C14.7548 17.0432 14.9568 17.2452 15.2 17.3856L19.3568 19.7856C19.5388 19.8923 19.7402 19.962 19.9492 19.9906C20.1583 20.0191 20.371 20.0061 20.575 19.9522C20.779 19.8982 20.9703 19.8045 21.1379 19.6763C21.3055 19.5481 21.4461 19.3881 21.5516 19.2053C21.6571 19.0226 21.7255 18.8208 21.7526 18.6115C21.7798 18.4023 21.7654 18.1897 21.7101 17.9861C21.6548 17.7824 21.5598 17.5918 21.4305 17.425C21.3012 17.2582 21.1402 17.1187 20.9568 17.0144ZM16 0C12.8355 0 9.74207 0.938383 7.11088 2.69649C4.4797 4.45459 2.42894 6.95344 1.21793 9.87706C0.00693254 12.8007 -0.309921 16.0177 0.307443 19.1214C0.924806 22.2251 2.44866 25.0761 4.6863 27.3137C6.92394 29.5513 9.77487 31.0752 12.8786 31.6926C15.9823 32.3099 19.1993 31.9931 22.1229 30.7821C25.0466 29.5711 27.5454 27.5203 29.3035 24.8891C31.0616 22.2579 32 19.1645 32 16C31.9958 11.7578 30.3087 7.69063 27.309 4.69097C24.3094 1.69131 20.2422 0.00423581 16 0ZM16 28.8C13.4684 28.8 10.9937 28.0493 8.88871 26.6428C6.78376 25.2363 5.14315 23.2372 4.17435 20.8983C3.20555 18.5594 2.95206 15.9858 3.44596 13.5028C3.93985 11.0199 5.15893 8.73914 6.94904 6.94903C8.73915 5.15892 11.0199 3.93984 13.5028 3.44595C15.9858 2.95206 18.5595 3.20554 20.8984 4.17434C23.2372 5.14314 25.2363 6.78375 26.6428 8.8887C28.0493 10.9936 28.8 13.4684 28.8 16C28.7958 19.3935 27.4458 22.6467 25.0463 25.0463C22.6467 27.4458 19.3935 28.7958 16 28.8Z" fill="#A6CF7F"/>
</svg>
