<svg width="70" height="50" viewBox="0 0 70 50" fill="none" xmlns="http://www.w3.org/2000/svg">
<g filter="url(#filter0_d_1800_338)">
<path d="M33.0009 0C33.6243 0.000133378 34.2333 0.171853 34.7495 0.493036C35.2657 0.81422 35.6655 1.27016 35.8974 1.80211C37.3706 5.19205 39.1976 7.33086 41.0578 8.68148C42.9055 10.0321 44.9364 10.7093 47.0089 10.9542C51.2828 11.4631 55.6691 10.1431 58.3783 9.04496L58.4491 9.01818C58.8361 8.86131 59.2689 8.68531 59.6393 8.55905H59.6601C60.3896 8.30285 61.1828 8.24053 61.949 8.37921C62.499 8.49147 63.0161 8.71164 63.465 9.02465C63.914 9.33766 64.284 9.73613 64.5499 10.1928C65.066 11.0728 65.0077 11.9605 64.9869 12.2513V12.2589C64.9578 12.6186 64.8912 13.0394 64.8371 13.4029C63.7468 20.4162 62.6398 27.4257 61.5702 34.439C61.0292 37.959 58.9942 40.1514 55.1864 41.1653C40.6818 44.9449 25.3201 44.9449 10.8155 41.1653C7.00767 40.1514 4.96849 37.959 4.43165 34.439C3.36212 27.4257 2.25514 20.4162 1.1648 13.4029C1.09926 13.0234 1.04929 12.6418 1.01499 12.2589V12.2513C0.94926 11.5411 1.1006 10.8281 1.45195 10.1928C1.71787 9.73613 2.08794 9.33766 2.53686 9.02465C2.98577 8.71164 3.50292 8.49147 4.05294 8.37921C4.81875 8.23931 5.61192 8.30031 6.34182 8.55522L6.35846 8.56287C6.73301 8.68531 7.16581 8.86131 7.55284 9.01818L7.62359 9.04496C10.3286 10.1431 14.7149 11.4631 18.9847 10.958C21.1633 10.7209 23.2277 9.9328 24.9483 8.68148C26.8002 7.33086 28.6271 5.19205 30.1045 1.80211C30.3364 1.27016 30.7362 0.81422 31.2524 0.493036C31.7686 0.171853 32.3776 0.000133378 33.0009 0Z" fill="#FFF700"/>
</g>
<defs>
<filter id="filter0_d_1800_338" x="0" y="0" width="70" height="50" filterUnits="userSpaceOnUse" color-interpolation-filters="sRGB">
<feFlood flood-opacity="0" result="BackgroundImageFix"/>
<feColorMatrix in="SourceAlpha" type="matrix" values="0 0 0 0 0 0 0 0 0 0 0 0 0 0 0 0 0 0 127 0" result="hardAlpha"/>
<feOffset dx="2" dy="3"/>
<feGaussianBlur stdDeviation="1.5"/>
<feComposite in2="hardAlpha" operator="out"/>
<feColorMatrix type="matrix" values="0 0 0 0 0 0 0 0 0 0 0 0 0 0 0 0 0 0 0.25 0"/>
<feBlend mode="normal" in2="BackgroundImageFix" result="effect1_dropShadow_1800_338"/>
<feBlend mode="normal" in="SourceGraphic" in2="effect1_dropShadow_1800_338" result="shape"/>
</filter>
</defs>
</svg>
